<svg xmlns="http://www.w3.org/2000/svg" viewBox="0 0 1024 1024" fill="none">
  <defs>
    <linearGradient id="tile" x1="512" y1="0" x2="512" y2="1024" gradientUnits="userSpaceOnUse">
      <stop stop-color="#FFFFFF"/>
      <stop offset="1" stop-color="#FAFAFA"/>
    </linearGradient>
    <linearGradient id="cloud" x1="512" y1="92" x2="512" y2="874" gradientUnits="userSpaceOnUse">
      <stop stop-color="#BDA0FF"/>
      <stop offset=".45" stop-color="#6E8BFF"/>
      <stop offset="1" stop-color="#2E22FF"/>
    </linearGradient>
    <filter id="tileShadow" x="-10%" y="-8%" width="120%" height="120%" color-interpolation-filters="sRGB">
      <feDropShadow dx="0" dy="24" stdDeviation="42" flood-color="#000000" flood-opacity=".16"/>
    </filter>
    <filter id="cloudShadow" x="-14%" y="-12%" width="128%" height="130%" color-interpolation-filters="sRGB">
      <feDropShadow dx="0" dy="18" stdDeviation="24" flood-color="#2431D9" flood-opacity=".26"/>
      <feDropShadow dx="0" dy="-8" stdDeviation="10" flood-color="#FFFFFF" flood-opacity=".35"/>
    </filter>
  </defs>
  <rect width="1024" height="1024" rx="178" fill="url(#tile)" filter="url(#tileShadow)"/>
  <path
    d="M474 126c73 0 136 34 176 86 30-13 64-17 99-10 82 17 139 89 139 171 0 28-7 55-20 79 43 34 69 87 66 146-5 88-75 160-161 167-18 82-90 142-176 142-47 0-89-18-121-47-38 23-85 32-132 21-79-18-135-88-137-169-58-38-93-105-86-178 8-84 69-154 149-174 25-90 107-234 204-234z"
    fill="url(#cloud)"
    filter="url(#cloudShadow)"
  />
  <path
    d="M474 126c73 0 136 34 176 86 30-13 64-17 99-10 82 17 139 89 139 171 0 28-7 55-20 79 43 34 69 87 66 146-5 88-75 160-161 167-18 82-90 142-176 142-47 0-89-18-121-47-38 23-85 32-132 21-79-18-135-88-137-169-58-38-93-105-86-178 8-84 69-154 149-174 25-90 107-234 204-234z"
    stroke="#7285FF"
    stroke-width="5"
    opacity=".55"
  />
  <path
    d="M331 393L405 512L331 631"
    stroke="#FFFFFF"
    stroke-width="58"
    stroke-linecap="round"
    stroke-linejoin="round"
  />
  <path
    d="M538 631H736"
    stroke="#FFFFFF"
    stroke-width="58"
    stroke-linecap="round"
  />
</svg>
